HIERARCHY
ROOT Hips
{
	OFFSET -3.958830 18.904000 13.208200
	CHANNELS 6 Xposition Yposition Zposition Zrotation Yrotation Xrotation 
	JOINT LHipJoint
	{
		OFFSET 0.000000 0.000000 0.000000
		CHANNELS 3 Zrotation Yrotation Xrotation
		JOINT LeftUpLeg
		{
			OFFSET 1.800000 -1.400000 0.085000
			CHANNELS 3 Zrotation Yrotation Xrotation
			JOINT LeftLeg
			{
				OFFSET 2.215000 -6.000000 0.000000
				CHANNELS 3 Zrotation Yrotation Xrotation
				JOINT LeftFoot
				{
					OFFSET 2.500000 -6.900000 0.000000
					CHANNELS 3 Zrotation Yrotation Xrotation
					JOINT LeftToeBase
					{
						OFFSET 0.200000 -0.500000 1.950000
						CHANNELS 3 Zrotation Yrotation Xrotation
						End Site
						{
							OFFSET 0.000000 0.000000 0.000000
						}
					}
				}
			}
		}
	}
	JOINT RHipJoint
	{
		OFFSET 0.000000 0.000000 0.000000
		CHANNELS 3 Zrotation Yrotation Xrotation
		JOINT RightUpLeg
		{
			OFFSET -1.800000 -1.400000 0.085000
			CHANNELS 3 Zrotation Yrotation Xrotation
			JOINT RightLeg
			{
				OFFSET -2.215000 -6.000000 0.000000
				CHANNELS 3 Zrotation Yrotation Xrotation
				JOINT RightFoot
				{
					OFFSET -2.500000 -6.900000 0.000000
					CHANNELS 3 Zrotation Yrotation Xrotation
					JOINT RightToeBase
					{
						OFFSET -0.200000 -0.500000 1.950000
						CHANNELS 3 Zrotation Yrotation Xrotation
						End Site
						{
							OFFSET 0.000000 0.000000 0.000000
						}
					}
				}
			}
		}
	}
	JOINT LowerBack
	{
		OFFSET 0.000000 0.000000 0.000000
		CHANNELS 3 Zrotation Yrotation Xrotation
		JOINT Spine
		{
			OFFSET -0.087000 1.940000 -0.288900
			CHANNELS 3 Zrotation Yrotation Xrotation
			JOINT Spine1
			{
				OFFSET 0.000000 1.950000 0.060000
				CHANNELS 3 Zrotation Yrotation Xrotation
				JOINT Neck
				{
					OFFSET 0.000000 0.000000 0.000000
					CHANNELS 3 Zrotation Yrotation Xrotation
					JOINT Neck1
					{
						OFFSET 0.000000 1.600000 0.340000
						CHANNELS 3 Zrotation Yrotation Xrotation
						JOINT Head
						{
							OFFSET 0.000000 1.667000 -0.240000
							CHANNELS 3 Zrotation Yrotation Xrotation
							End Site
							{
								OFFSET 0.000000 0.000000 0.000000
							}
						}
					}
				}
				JOINT LeftShoulder
				{
					OFFSET 0.000000 0.000000 0.000000
					CHANNELS 3 Zrotation Yrotation Xrotation
					JOINT LeftArm
					{
						OFFSET 2.700000 1.550000 -0.730000
						CHANNELS 3 Zrotation Yrotation Xrotation
						JOINT LeftForeArm
						{
							OFFSET 5.450000 0.000000 0.000000
							CHANNELS 3 Zrotation Yrotation Xrotation
							JOINT LeftHand
							{
								OFFSET 3.450000 0.000000 0.000000
								CHANNELS 3 Zrotation Yrotation Xrotation
								JOINT LeftHandIndex1
								{
									OFFSET 0.750000 0.000000 0.000000
									CHANNELS 3 Zrotation Yrotation Xrotation
									End Site
									{
										OFFSET 0.000000 0.000000 0.000000
									}
								}
							}
						}
					}
				}
				JOINT RightShoulder
				{
					OFFSET 0.000000 0.000000 0.000000
					CHANNELS 3 Zrotation Yrotation Xrotation
					JOINT RightArm
					{
						OFFSET -2.700000 1.550000 -0.730000
						CHANNELS 3 Zrotation Yrotation Xrotation
						JOINT RightForeArm
						{
							OFFSET -5.450000 0.000000 0.000000
							CHANNELS 3 Zrotation Yrotation Xrotation
							JOINT RightHand
							{
								OFFSET -3.450000 0.000000 0.000000
								CHANNELS 3 Zrotation Yrotation Xrotation
								JOINT RightHandIndex1
								{
									OFFSET -0.750000 0.000000 0.000000
									CHANNELS 3 Zrotation Yrotation Xrotation
									End Site
									{
										OFFSET 0.000000 0.000000 0.000000
									}
								}
							}
						}
					}
				}
			}
		}
	}
}
MOTION
Frames: 14
Frame Time: 0.016667
0.151350 16.253010 -7.806790 10.501214 -4.884654 10.469575 -15.069221 10.910042 3.427380 30.307768 0.961541 -33.172031 1.052830 7.329297 23.836678 -0.429471 5.823399 2.372311 0.165400 -0.126920 0.192490 18.926478 -8.625069 5.038919 -28.029729 7.077857 -49.888917 15.519052 -22.187604 53.358667 -1.342967 -10.231682 0.869819 -0.053300 0.187670 0.198290 -4.688618 -0.086323 -9.159531 40.368982 -20.123754 29.591371 -25.090220 -6.049743 -3.776149 11.312686 2.145447 -3.465127 5.028290 -11.009201 25.407233 -9.286410 -3.917370 -16.614810 -19.394309 11.044815 -4.882214 -26.678317 15.354696 -5.443533 -12.812711 15.016371 -3.967768 -3.931088 2.280492 0.500480 0.116290 -0.068100 0.047350 -5.630303 -11.558852 9.340745 34.601363 -11.366422 -11.940509 1.101372 81.808836 -2.278539 1.796158 -2.186603 -0.231400 0.154270 0.106230 -0.218520 
0.162490 16.196600 -7.771210 10.113192 -4.916928 12.311815 -15.112666 11.170078 3.140891 28.515225 0.859361 -33.304374 4.145155 6.268919 23.288704 -0.466913 5.470635 2.585749 0.091960 -0.226240 0.168680 18.878534 -8.405558 5.320310 -29.064896 7.077642 -51.646212 17.395468 -23.248642 52.756509 -1.352669 -10.415355 0.864611 -0.084830 0.300730 0.177700 -4.537919 -0.624436 -9.155268 41.203974 -19.196416 28.246742 -23.417726 -5.272254 -6.748956 11.072822 1.904759 -3.117530 4.926693 -10.932825 23.966959 -10.497900 -3.139960 -13.884520 -17.715450 13.946865 -5.934412 -27.764974 17.923452 -5.467436 -8.318800 17.469549 -3.037766 -4.148137 2.056670 0.475910 0.195650 -0.134290 0.061570 -7.294199 -12.681272 9.394345 33.582718 -9.876432 -11.503784 -15.469667 77.698972 -12.342495 1.773723 -1.979759 -0.304470 0.221880 0.127250 -0.218020 
0.190710 16.130310 -7.694340 9.960168 -4.830945 15.096310 -15.190990 11.582998 2.761198 25.491517 0.390761 -33.043638 7.533669 4.995511 22.448233 -0.551362 5.044406 2.813717 -0.076320 -0.392240 0.069770 18.787246 -8.070718 5.675712 -31.432945 6.509297 -53.240105 21.757073 -24.779090 49.914052 -1.292266 -10.517491 0.889192 -0.124360 0.437490 0.118200 -4.261453 -1.544820 -9.138302 41.851830 -17.499067 26.284804 -20.688354 -3.939507 -12.370786 10.881017 2.359296 -2.279535 6.049053 -10.165616 21.772799 -13.042540 -0.328770 -9.713290 -15.359763 18.744312 -8.151971 -27.570560 23.042900 -4.953005 -0.448135 17.700628 -1.072595 -4.454617 1.766223 0.416480 0.318970 -0.250180 0.039050 -9.942851 -14.924795 10.007587 33.684357 -6.983941 -10.491101 -44.539683 71.150392 -26.011431 1.724987 -1.426255 -0.428140 0.296170 0.210820 -0.233610 
0.229970 16.084710 -7.584070 9.437314 -5.645745 20.479249 -15.353018 11.718740 2.626840 22.981739 -0.001983 -34.278548 8.241830 4.646230 21.313428 -0.686738 4.901883 2.956385 -0.243060 -0.587470 0.033660 18.704341 -7.343889 6.089005 -34.524569 6.471122 -57.025015 26.414411 -25.658923 46.359283 -1.202126 -10.495665 0.935856 -0.151370 0.589590 0.093800 -3.912076 -2.662765 -9.198633 42.483968 -14.391500 23.507952 -18.257796 -1.233280 -21.215001 11.026611 4.083525 -0.246496 9.260528 -11.383219 17.506597 -17.454980 3.286800 -4.638900 -8.744151 28.352471 -14.506208 -22.668807 26.086385 -1.749569 7.492625 16.843896 0.623714 -4.853316 1.243758 0.357660 0.500960 -0.380520 0.002140 -17.985513 -17.334938 15.078499 39.775141 -3.194209 -7.790661 -71.140733 63.140821 -35.657792 2.063912 -1.320910 -0.585570 0.353760 0.289120 -0.290070 
0.247180 16.094570 -7.537450 8.461902 -7.041525 22.651510 -15.518481 12.210866 2.507124 20.750597 -0.157557 -34.181134 8.639652 4.555355 22.388579 -0.723741 4.912636 2.933874 -0.204780 -0.593640 0.142740 18.539344 -6.874448 6.219398 -34.718695 7.778459 -58.487243 27.355029 -24.703850 45.159505 -1.194143 -10.264438 0.971831 -0.167900 0.508250 0.181560 -3.452798 -4.041355 -9.157120 41.924802 -13.336619 24.783284 -14.839124 1.294734 -25.975230 10.434126 6.466342 -0.005176 12.419314 -12.652704 16.219343 -21.551800 5.707450 -4.248640 -2.889883 33.362880 -18.037252 -18.560842 28.535467 -0.055561 10.664198 15.057749 0.912503 -5.014561 1.054955 0.388210 0.517590 -0.330920 -0.029680 -23.319489 -16.995294 18.288719 46.329497 1.655851 -6.447201 -90.286497 48.992514 -38.076996 2.368062 -1.589646 -0.551310 0.247580 0.267250 -0.353270 
0.261750 16.133680 -7.532530 8.553510 -7.147905 22.994522 -15.587403 12.552131 2.482777 17.486639 -0.821787 -34.423264 8.317723 4.676853 25.849894 -0.800545 5.121052 2.821457 -0.160750 -0.549740 0.205960 18.429045 -6.772287 6.262880 -35.104139 8.093892 -57.906171 28.594141 -23.667161 43.278092 -1.170327 -9.951532 1.029669 -0.131240 0.443000 0.213410 -3.186132 -4.696790 -9.119087 41.780141 -12.122264 25.873718 -12.206512 4.007300 -26.863874 9.437907 7.392784 -1.164029 13.447680 -12.916801 15.683143 -23.747550 6.214690 -7.144900 -1.393719 32.422880 -17.952433 -17.105167 29.976569 -0.636812 11.388448 12.909468 0.677207 -5.067270 1.076716 0.462880 0.489490 -0.265700 -0.053980 -23.377169 -17.089064 16.694903 48.980495 3.228285 -3.159799 -103.843504 30.275893 -30.691094 2.267702 -1.870464 -0.557100 0.248810 0.274490 -0.396970 
0.265170 16.186690 -7.565790 9.072736 -7.518538 20.701267 -15.715210 13.228229 2.511883 14.271065 -1.364545 -33.063676 7.675692 5.081863 30.025450 -0.606267 5.423903 2.657609 -0.170140 -0.581330 0.160800 18.186419 -6.747317 6.147468 -34.800433 8.671914 -54.990686 28.631770 -22.366804 42.497133 -1.136629 -9.624074 1.123265 -0.251280 0.325360 0.226340 -2.636017 -5.925676 -9.197032 40.302818 -12.721753 31.027800 -10.997423 7.004147 -28.324369 7.610571 7.918484 -3.960707 13.586407 -11.833187 19.268953 -22.654380 6.596260 -7.057080 -0.963554 28.588260 -14.811700 -17.135860 33.001878 -2.657742 10.505698 9.560784 0.253345 -4.837792 1.439717 0.506020 0.353950 -0.204680 -0.072720 -20.791828 -14.761505 14.077720 48.152510 4.643206 -2.159600 -115.103015 12.623507 -14.824899 2.371794 -2.107239 -0.444360 0.128100 0.279820 -0.369270 
0.280340 16.256420 -7.642910 9.949552 -7.786491 15.779394 -15.739339 13.827567 2.517806 11.008296 -1.903180 -29.924317 7.105364 5.606143 35.626991 -0.351696 6.080691 2.404279 -0.073430 -0.467490 0.125960 18.023018 -7.036439 5.845141 -33.791302 9.263148 -50.086943 27.590454 -21.047507 42.988535 -1.160694 -9.396868 1.184558 -0.264640 0.256410 0.222990 -2.346057 -6.665936 -9.154906 38.997004 -14.817316 37.260980 -9.905291 6.984618 -25.530104 6.577618 5.195561 -6.111647 9.216418 -9.563168 24.558136 -17.344780 4.369170 -10.697480 -6.517208 21.558299 -8.816113 -20.217720 38.526829 -5.249711 6.893859 7.570415 -0.355028 -4.504272 1.845131 0.565810 0.187810 -0.114330 -0.007360 -12.739289 -10.892935 9.208531 38.715434 8.014279 -3.300872 -129.716682 -2.208838 6.923551 2.455568 -2.249048 -0.340420 0.111130 0.225710 -0.287660 
0.306560 16.290280 -7.685900 10.260482 -8.275244 15.997276 -15.857254 13.599893 2.988733 8.730954 -3.260334 -32.492021 4.344598 7.585439 42.220174 -0.178450 7.336014 1.948573 -0.027330 -0.405460 0.152820 17.954573 -6.726260 5.787630 -34.178053 9.372496 -50.355874 27.442975 -20.423700 42.911525 -1.157388 -9.297031 1.203334 -0.213850 0.246680 0.210130 -2.119196 -7.103893 -9.382141 37.518947 -14.286471 39.133407 -9.037601 8.513145 -25.747097 6.518235 4.518668 -7.115507 8.145870 -9.996158 26.336992 -16.109020 3.226590 -11.567220 -6.314139 19.206003 -6.227459 -20.945789 38.495751 -5.513114 6.364652 8.959688 -0.399230 -4.531025 1.811768 0.592760 0.165750 -0.089120 0.002290 -12.547620 -7.925688 6.696198 36.064024 9.661741 -6.278043 -142.981958 -14.743647 46.452428 2.658387 -2.419134 -0.349700 0.154710 0.213240 -0.287550 
0.336970 16.302270 -7.674500 11.327638 -5.424178 18.485670 -15.974513 12.905362 3.777570 6.405596 -6.285360 -37.828511 1.224849 9.397540 47.579633 0.071857 8.400368 1.590714 -0.009410 -0.331230 0.202010 17.943576 -6.369354 5.700317 -35.777729 6.997360 -50.632219 28.906405 -20.687808 40.549937 -1.118439 -9.223489 1.221712 -0.173690 0.208950 0.193150 -1.979052 -7.165104 -9.692146 36.853840 -13.219803 36.517076 -7.888525 9.972088 -26.921984 6.987094 5.210815 -8.119611 9.180994 -12.919272 25.043955 -18.496720 2.602480 -10.352560 -4.165066 17.968961 -4.521493 -21.461394 34.266032 -5.621872 6.535772 13.278169 0.043692 -4.645681 1.752862 0.520850 0.197380 -0.071380 -0.005900 -15.233659 -6.976474 5.247641 38.400747 5.157785 -11.668599 -150.470992 -20.950276 77.756991 2.850579 -2.425967 -0.323160 0.147670 0.160280 -0.281650 
0.342370 16.327150 -7.721230 10.548512 -7.675837 19.082636 -16.041307 12.424868 4.295894 6.442851 -7.259438 -40.890236 -4.404893 13.270312 50.764006 0.371873 9.687639 1.184273 -0.015960 -0.319940 0.210120 17.946627 -6.118750 5.646287 -34.910668 8.171537 -52.008486 27.871123 -19.543819 40.848103 -1.085960 -8.959912 1.318304 -0.170320 0.190150 0.138130 -1.935616 -7.030872 -9.911795 34.809186 -12.678715 39.080570 -7.990895 11.444112 -28.015970 6.686795 5.548142 -8.424453 9.766714 -13.051334 26.918813 -17.993020 2.858730 -10.407600 -1.898874 16.912191 -3.273744 -19.980352 29.895282 -5.582240 2.287880 23.080039 -0.308531 -4.636931 1.592293 0.556770 0.158900 -0.040540 0.009250 -16.501215 -6.314063 3.903480 43.811099 4.615177 -14.694781 -156.527285 -20.276326 92.156900 2.909801 -2.379604 -0.354740 0.188640 0.124810 -0.278500 
0.356040 16.345280 -7.768360 8.766427 -9.902973 19.636332 -16.082255 12.052653 4.682152 6.452857 -7.359677 -44.336343 -8.265095 16.041036 51.916826 0.610262 10.523009 0.915601 -0.032510 -0.335760 0.185900 17.958305 -5.960488 5.588096 -33.386502 10.307311 -52.926844 26.886620 -18.563522 41.612594 -1.062399 -8.776801 1.364407 -0.197210 0.196480 0.160680 -1.949814 -6.788502 -10.027708 34.463019 -12.038434 41.933875 -9.052800 13.580066 -28.808346 5.814471 5.430722 -8.655580 9.646985 -13.073097 26.985107 -16.360470 2.954020 -9.887350 -0.840973 15.382883 -2.304910 -17.766398 27.238255 -5.398123 -4.539730 26.635933 -2.474405 -4.558358 1.610519 0.537570 0.156970 -0.042620 -0.000370 -16.164238 -4.111609 3.268469 46.839497 6.641971 -16.296533 -160.662132 -18.050404 96.298537 2.921579 -2.419657 -0.324820 0.151620 0.139820 -0.261820 
0.367060 16.360300 -7.852200 7.065724 -11.928280 17.732518 -16.110739 12.049394 4.781308 6.148438 -6.721246 -44.930419 -11.133141 18.180388 52.260759 0.821301 11.088885 0.799946 0.006320 -0.228950 0.124870 17.929194 -5.966478 5.409178 -31.044957 12.576027 -51.731568 25.880577 -17.398983 42.556607 -1.032443 -8.640190 1.469667 -0.118620 0.296360 0.115790 -1.913110 -6.755591 -9.976062 33.254556 -11.207904 47.373900 -6.249673 14.237013 -26.009799 4.387188 2.787699 -8.540016 5.477028 -10.420666 24.986154 -12.909710 3.910740 -10.308640 -2.088569 14.451878 -2.836911 -20.180665 26.223222 -6.531712 -9.709799 25.430602 -4.146081 -4.453326 1.690732 0.465570 0.195240 -0.083390 0.092410 -12.706051 -0.109793 4.116997 40.142219 14.589376 -11.623836 -161.576682 -13.530907 75.450540 2.780661 -2.694874 -0.341570 0.223930 0.086330 -0.193710 
0.367250 16.399260 -7.964060 5.630439 -14.032215 12.635700 -16.143011 12.441061 4.553898 5.523478 -5.165521 -42.399315 -12.012337 19.455970 52.556440 0.849262 11.448604 0.674460 0.103020 -0.098120 0.142170 17.840432 -6.254547 4.968479 -27.347050 14.746918 -47.007308 24.371832 -15.984583 43.542434 -1.018322 -8.491052 1.509934 -0.001540 0.349870 0.153120 -1.757494 -6.841658 -9.675618 30.684121 -7.949485 55.739939 0.026298 14.022600 -19.551307 3.736919 1.217153 -8.364331 3.627406 -6.193781 19.893167 -10.685110 4.931100 -14.280180 -3.641650 15.761626 -6.418399 -21.248521 22.553764 -7.979762 -23.128292 27.281066 -9.044443 -4.254540 1.809140 0.445350 0.242850 -0.100080 0.126510 -10.039250 1.610244 7.739153 31.068001 21.897321 -2.696960 -152.602696 -7.996531 13.644674 2.196877 -2.661362 -0.342950 0.261470 0.082560 -0.192080 
